<svg width="150" height="46" viewBox="0 0 150 46" fill="none" xmlns="http://www.w3.org/2000/svg">
<rect width="150" height="46" rx="14" fill="#A6C643"/>
<path d="M66 13.836V14.34C66 15.436 65.624 16.348 64.872 17.076C64.12 17.796 63.124 18.156 61.884 18.156C60.604 18.156 59.544 17.736 58.704 16.896C57.872 16.048 57.456 15.016 57.456 13.8C57.456 12.584 57.872 11.556 58.704 10.716C59.544 9.868 60.596 9.444 61.86 9.444C62.636 9.444 63.348 9.632 63.996 10.008C64.644 10.376 65.144 10.864 65.496 11.472L64.536 12.036C64.296 11.58 63.932 11.216 63.444 10.944C62.964 10.664 62.432 10.524 61.848 10.524C60.888 10.524 60.1 10.84 59.484 11.472C58.868 12.096 58.56 12.872 58.56 13.8C58.56 14.728 58.868 15.504 59.484 16.128C60.108 16.752 60.912 17.064 61.896 17.064C62.736 17.064 63.416 16.86 63.936 16.452C64.456 16.036 64.772 15.5 64.884 14.844H61.8V13.836H66ZM68.101 15.48C68.205 16.016 68.449 16.432 68.833 16.728C69.225 17.024 69.705 17.172 70.273 17.172C71.065 17.172 71.641 16.88 72.001 16.296L72.889 16.8C72.305 17.704 71.425 18.156 70.249 18.156C69.297 18.156 68.521 17.86 67.921 17.268C67.329 16.668 67.033 15.912 67.033 15C67.033 14.096 67.325 13.344 67.909 12.744C68.493 12.144 69.249 11.844 70.177 11.844C71.057 11.844 71.773 12.156 72.325 12.78C72.885 13.396 73.165 14.14 73.165 15.012C73.165 15.164 73.153 15.32 73.129 15.48H68.101ZM70.177 12.828C69.617 12.828 69.153 12.988 68.785 13.308C68.417 13.62 68.189 14.04 68.101 14.568H72.109C72.021 14 71.797 13.568 71.437 13.272C71.077 12.976 70.657 12.828 70.177 12.828ZM77.5733 13.008H75.9773V16.26C75.9773 16.556 76.0333 16.768 76.1453 16.896C76.2653 17.016 76.4453 17.08 76.6853 17.088C76.9253 17.088 77.2213 17.08 77.5733 17.064V18C76.6613 18.12 75.9933 18.048 75.5693 17.784C75.1453 17.512 74.9333 17.004 74.9333 16.26V13.008H73.7453V12H74.9333V10.632L75.9773 10.32V12H77.5733V13.008ZM82.6125 10.908C82.4125 10.908 82.2445 10.84 82.1085 10.704C81.9725 10.568 81.9045 10.404 81.9045 10.212C81.9045 10.02 81.9725 9.856 82.1085 9.72C82.2445 9.576 82.4125 9.504 82.6125 9.504C82.8045 9.504 82.9685 9.576 83.1045 9.72C83.2405 9.856 83.3085 10.02 83.3085 10.212C83.3085 10.404 83.2405 10.568 83.1045 10.704C82.9685 10.84 82.8045 10.908 82.6125 10.908ZM82.0845 18V12H83.1285V18H82.0845ZM88.1052 13.008H86.5092V16.26C86.5092 16.556 86.5652 16.768 86.6772 16.896C86.7972 17.016 86.9772 17.08 87.2172 17.088C87.4572 17.088 87.7532 17.08 88.1052 17.064V18C87.1932 18.12 86.5252 18.048 86.1012 17.784C85.6772 17.512 85.4652 17.004 85.4652 16.26V13.008H84.2772V12H85.4652V10.632L86.5092 10.32V12H88.1052V13.008ZM97.6804 17.244C97.0644 17.852 96.3164 18.156 95.4364 18.156C94.5564 18.156 93.8084 17.852 93.1924 17.244C92.5844 16.636 92.2804 15.888 92.2804 15C92.2804 14.112 92.5844 13.364 93.1924 12.756C93.8084 12.148 94.5564 11.844 95.4364 11.844C96.3164 11.844 97.0644 12.148 97.6804 12.756C98.2964 13.364 98.6044 14.112 98.6044 15C98.6044 15.888 98.2964 16.636 97.6804 17.244ZM95.4364 17.136C96.0364 17.136 96.5404 16.932 96.9484 16.524C97.3564 16.116 97.5604 15.608 97.5604 15C97.5604 14.392 97.3564 13.884 96.9484 13.476C96.5404 13.068 96.0364 12.864 95.4364 12.864C94.8444 12.864 94.3444 13.068 93.9364 13.476C93.5284 13.884 93.3244 14.392 93.3244 15C93.3244 15.608 93.5284 16.116 93.9364 16.524C94.3444 16.932 94.8444 17.136 95.4364 17.136ZM102.943 11.844C103.647 11.844 104.211 12.068 104.635 12.516C105.059 12.956 105.271 13.556 105.271 14.316V18H104.227V14.376C104.227 13.888 104.095 13.512 103.831 13.248C103.567 12.976 103.203 12.84 102.739 12.84C102.219 12.84 101.799 13.004 101.479 13.332C101.159 13.652 100.999 14.148 100.999 14.82V18H99.9551V12H100.999V12.864C101.423 12.184 102.071 11.844 102.943 11.844Z" fill="white"/>
<path d="M63.18 34L62.676 32.488H59.328L58.824 34H57.036L59.976 25.6H62.028L64.98 34H63.18ZM59.856 30.94H62.16L61.008 27.508L59.856 30.94ZM69.3356 27.832C70.1436 27.832 70.8316 28.14 71.3996 28.756C71.9756 29.364 72.2636 30.112 72.2636 31C72.2636 31.888 71.9756 32.64 71.3996 33.256C70.8316 33.864 70.1436 34.168 69.3356 34.168C68.4956 34.168 67.8476 33.876 67.3916 33.292V36.4H65.8436V28H67.3916V28.708C67.8476 28.124 68.4956 27.832 69.3356 27.832ZM67.8596 32.224C68.1716 32.536 68.5676 32.692 69.0476 32.692C69.5276 32.692 69.9236 32.536 70.2356 32.224C70.5556 31.904 70.7156 31.496 70.7156 31C70.7156 30.504 70.5556 30.1 70.2356 29.788C69.9236 29.468 69.5276 29.308 69.0476 29.308C68.5676 29.308 68.1716 29.468 67.8596 29.788C67.5476 30.1 67.3916 30.504 67.3916 31C67.3916 31.496 67.5476 31.904 67.8596 32.224ZM76.9673 27.832C77.7753 27.832 78.4633 28.14 79.0313 28.756C79.6073 29.364 79.8953 30.112 79.8953 31C79.8953 31.888 79.6073 32.64 79.0313 33.256C78.4633 33.864 77.7753 34.168 76.9673 34.168C76.1273 34.168 75.4793 33.876 75.0233 33.292V36.4H73.4753V28H75.0233V28.708C75.4793 28.124 76.1273 27.832 76.9673 27.832ZM75.4913 32.224C75.8033 32.536 76.1993 32.692 76.6793 32.692C77.1593 32.692 77.5553 32.536 77.8673 32.224C78.1873 31.904 78.3473 31.496 78.3473 31C78.3473 30.504 78.1873 30.1 77.8673 29.788C77.5553 29.468 77.1593 29.308 76.6793 29.308C76.1993 29.308 75.8033 29.468 75.4913 29.788C75.1793 30.1 75.0233 30.504 75.0233 31C75.0233 31.496 75.1793 31.904 75.4913 32.224ZM81.1071 34V25.24H82.6551V34H81.1071ZM85.4999 31.636C85.7079 32.388 86.2719 32.764 87.1919 32.764C87.7839 32.764 88.2319 32.564 88.5359 32.164L89.7839 32.884C89.1919 33.74 88.3199 34.168 87.1679 34.168C86.1759 34.168 85.3799 33.868 84.7799 33.268C84.1799 32.668 83.8799 31.912 83.8799 31C83.8799 30.096 84.1759 29.344 84.7679 28.744C85.3599 28.136 86.1199 27.832 87.0479 27.832C87.9279 27.832 88.6519 28.136 89.2199 28.744C89.7959 29.352 90.0839 30.104 90.0839 31C90.0839 31.2 90.0639 31.412 90.0239 31.636H85.4999ZM85.4759 30.436H88.5359C88.4479 30.028 88.2639 29.724 87.9839 29.524C87.7119 29.324 87.3999 29.224 87.0479 29.224C86.6319 29.224 86.2879 29.332 86.0159 29.548C85.7439 29.756 85.5639 30.052 85.4759 30.436ZM97.3446 34.168C96.5126 34.168 95.8126 33.984 95.2446 33.616C94.6766 33.24 94.2766 32.732 94.0446 32.092L95.4606 31.264C95.7886 32.12 96.4326 32.548 97.3926 32.548C97.8566 32.548 98.1966 32.464 98.4126 32.296C98.6286 32.128 98.7366 31.916 98.7366 31.66C98.7366 31.364 98.6046 31.136 98.3406 30.976C98.0766 30.808 97.6046 30.628 96.9246 30.436C96.5486 30.324 96.2286 30.212 95.9646 30.1C95.7086 29.988 95.4486 29.84 95.1846 29.656C94.9286 29.464 94.7326 29.224 94.5966 28.936C94.4606 28.648 94.3926 28.312 94.3926 27.928C94.3926 27.168 94.6606 26.564 95.1966 26.116C95.7406 25.66 96.3926 25.432 97.1526 25.432C97.8326 25.432 98.4286 25.6 98.9406 25.936C99.4606 26.264 99.8646 26.724 100.153 27.316L98.7606 28.12C98.4246 27.4 97.8886 27.04 97.1526 27.04C96.8086 27.04 96.5366 27.12 96.3366 27.28C96.1446 27.432 96.0486 27.632 96.0486 27.88C96.0486 28.144 96.1566 28.36 96.3726 28.528C96.5966 28.688 97.0206 28.864 97.6446 29.056C97.9006 29.136 98.0926 29.2 98.2206 29.248C98.3566 29.288 98.5366 29.356 98.7606 29.452C98.9926 29.54 99.1686 29.624 99.2886 29.704C99.4166 29.784 99.5606 29.892 99.7206 30.028C99.8806 30.164 100.001 30.304 100.081 30.448C100.169 30.592 100.241 30.768 100.297 30.976C100.361 31.176 100.393 31.396 100.393 31.636C100.393 32.412 100.109 33.028 99.5406 33.484C98.9806 33.94 98.2486 34.168 97.3446 34.168ZM104.777 29.488H103.421V31.984C103.421 32.192 103.473 32.344 103.577 32.44C103.681 32.536 103.833 32.592 104.033 32.608C104.233 32.616 104.481 32.612 104.777 32.596V34C103.713 34.12 102.961 34.02 102.521 33.7C102.089 33.38 101.873 32.808 101.873 31.984V29.488H100.829V28H101.873V26.788L103.421 26.32V28H104.777V29.488ZM110.913 33.256C110.297 33.864 109.545 34.168 108.657 34.168C107.769 34.168 107.017 33.864 106.401 33.256C105.793 32.64 105.489 31.888 105.489 31C105.489 30.112 105.793 29.364 106.401 28.756C107.017 28.14 107.769 27.832 108.657 27.832C109.545 27.832 110.297 28.14 110.913 28.756C111.529 29.364 111.837 30.112 111.837 31C111.837 31.888 111.529 32.64 110.913 33.256ZM107.493 32.188C107.805 32.5 108.193 32.656 108.657 32.656C109.121 32.656 109.509 32.5 109.821 32.188C110.133 31.876 110.289 31.48 110.289 31C110.289 30.52 110.133 30.124 109.821 29.812C109.509 29.5 109.121 29.344 108.657 29.344C108.193 29.344 107.805 29.5 107.493 29.812C107.189 30.124 107.037 30.52 107.037 31C107.037 31.48 107.189 31.876 107.493 32.188ZM114.594 29.032C114.738 28.648 114.974 28.36 115.302 28.168C115.638 27.976 116.01 27.88 116.418 27.88V29.608C115.946 29.552 115.522 29.648 115.146 29.896C114.778 30.144 114.594 30.556 114.594 31.132V34H113.046V28H114.594V29.032ZM118.529 31.636C118.737 32.388 119.301 32.764 120.221 32.764C120.813 32.764 121.261 32.564 121.565 32.164L122.813 32.884C122.221 33.74 121.349 34.168 120.197 34.168C119.205 34.168 118.409 33.868 117.809 33.268C117.209 32.668 116.909 31.912 116.909 31C116.909 30.096 117.205 29.344 117.797 28.744C118.389 28.136 119.149 27.832 120.077 27.832C120.957 27.832 121.681 28.136 122.249 28.744C122.825 29.352 123.113 30.104 123.113 31C123.113 31.2 123.093 31.412 123.053 31.636H118.529ZM118.505 30.436H121.565C121.477 30.028 121.293 29.724 121.013 29.524C120.741 29.324 120.429 29.224 120.077 29.224C119.661 29.224 119.317 29.332 119.045 29.548C118.773 29.756 118.593 30.052 118.505 30.436Z" fill="white"/>
<path d="M24.3675 33.2575C23.5815 33.2149 22.8419 32.8722 22.3013 32.3C21.6545 31.6778 21.0773 30.9871 20.58 30.24C19.8031 29.1275 19.189 27.9098 18.7563 26.6238C18.2665 25.2402 18.0089 23.7852 17.9938 22.3175C17.9557 20.8775 18.3123 19.4544 19.025 18.2025C19.547 17.3001 20.2915 16.5466 21.1875 16.0138C22.0736 15.4832 23.0848 15.1977 24.1175 15.1863C24.896 15.2323 25.6611 15.4103 26.38 15.7125C26.9538 15.965 27.5563 16.1425 28.175 16.24C28.8575 16.097 29.5244 15.8877 30.1663 15.615C30.9258 15.3184 31.7301 15.1524 32.545 15.1238C32.6538 15.1238 32.7613 15.1238 32.865 15.1363C34.6525 15.1875 36.315 16.065 37.365 17.5113C36.5455 17.9496 35.8637 18.6065 35.3952 19.4091C34.9267 20.2117 34.6899 21.1285 34.7113 22.0575C34.7031 22.7679 34.8456 23.472 35.1293 24.1234C35.4131 24.7747 35.8317 25.3585 36.3575 25.8363C36.8363 26.2925 37.3938 26.6575 38.0025 26.915C37.8775 27.29 37.7338 27.6525 37.5813 28.0175C37.235 28.8241 36.8078 29.5935 36.3063 30.3138C35.832 31.0354 35.2799 31.7027 34.66 32.3038C34.0945 32.8649 33.3408 33.1959 32.545 33.2325C31.8704 33.2026 31.2078 33.0444 30.5925 32.7663C29.929 32.4772 29.216 32.3189 28.4925 32.3C27.7486 32.3147 27.0145 32.4721 26.33 32.7638C25.7388 33.0305 25.1072 33.1965 24.4613 33.255L24.3675 33.2575ZM28.305 15.1238C28.2113 15.1238 28.1175 15.1238 28.0238 15.1125C28.004 14.9637 27.9936 14.8139 27.9925 14.6638C28.0334 13.4152 28.5213 12.2228 29.3675 11.3038C29.8408 10.7756 30.4144 10.3469 31.055 10.0425C31.652 9.73522 32.3043 9.55035 32.9738 9.49878C32.9925 9.66253 32.9925 9.82253 32.9925 9.97503C32.9749 11.204 32.5132 12.3851 31.6925 13.3C31.2952 13.8328 30.786 14.2721 30.2008 14.5872C29.6156 14.9023 28.9685 15.0854 28.305 15.1238Z" fill="#F8F8F8"/>
</svg>
