<svg width="22" height="22" viewBox="0 0 22 22" fill="none" xmlns="http://www.w3.org/2000/svg">
<circle cx="11" cy="11" r="11" fill="#F5EBFF"/>
<path fill-rule="evenodd" clip-rule="evenodd" d="M7.83631 7.51446C8.55206 7.16417 9.72631 6.75 11.0114 6.75C12.2696 6.75 13.413 7.14696 14.1249 7.49258L14.1652 7.51212C14.3798 7.61829 14.5531 7.71863 14.675 7.8L13.5976 9.375C16.0814 11.9142 18 17.2491 11.0114 17.2491C4.02276 17.2491 5.88972 12.0111 8.39514 9.375L7.32472 7.8C7.40726 7.74604 7.51197 7.68333 7.63681 7.61683C7.69864 7.58358 7.76514 7.54946 7.83631 7.51475V7.51446ZM12.9052 9.354L13.7676 8.09312C12.9656 8.15087 12.0112 8.33929 11.0925 8.60529C10.4362 8.79487 9.70706 8.766 9.03185 8.64146C8.8617 8.60991 8.69272 8.57236 8.52522 8.52887L9.08522 9.35342C10.2854 9.78071 11.7047 9.78071 12.9052 9.354ZM8.74835 9.85042C10.1527 10.3929 11.8406 10.3929 13.245 9.84983C13.8312 10.4678 14.3216 11.17 14.6998 11.9332C15.0941 12.7376 15.3088 13.5417 15.2738 14.2347C15.24 14.9035 14.9769 15.4749 14.3761 15.8996C13.7498 16.342 12.6966 16.6658 11.0111 16.6658C9.32381 16.6658 8.26564 16.3476 7.6336 15.9101C7.02839 15.4907 6.76268 14.9272 6.72506 14.2674C6.68568 13.582 6.89568 12.782 7.28856 11.972C7.66335 11.1997 8.18631 10.4562 8.74835 9.85042ZM8.41293 7.89217C8.64626 7.96158 8.8901 8.02196 9.13743 8.06775C9.76451 8.18325 10.3933 8.20017 10.93 8.04471C11.5554 7.86252 12.1915 7.71923 12.8346 7.61567C12.2979 7.45408 11.6703 7.33333 11.0111 7.33333C10.0063 7.33333 9.06918 7.61363 8.41293 7.89217Z" fill="#433D4A" stroke="#433D4A"/>
</svg>
