<svg width="1292" height="631" viewBox="0 0 1292 631" fill="none" xmlns="http://www.w3.org/2000/svg">
<g opacity="0.8">
<path d="M517.864 237.513L524.624 234.913L532.423 223.473V215.673L540.223 210.993L550.623 203.714L561.542 208.394L577.662 198.514L588.582 196.954L601.061 198.514L611.981 193.834L616.661 203.714L611.981 208.394L623.94 215.673H630.7L638.5 223.473L648.9 227.113L654.099 223.473V215.673H665.539L679.059 223.473H692.578H705.058L711.818 237.513L714.938 245.312L720.657 256.232L724.817 266.632V274.951L732.097 281.191L736.257 293.671L744.577 299.391L751.856 308.23L754.976 316.55L760.696 320.19L770.056 322.27L787.735 316.55V329.55L779.935 342.549L772.656 353.989L762.776 363.349L751.856 375.828L742.497 386.228L736.257 397.668L739.377 411.707L744.577 418.467V429.907V440.306L739.377 449.146L729.497 451.746L724.817 458.506L718.057 466.305L720.657 479.305L718.057 485.025L710.778 490.225L707.138 494.905V500.104L705.578 506.344L693.098 521.424L681.659 529.223L671.779 533.903L666.579 529.223L659.819 533.903H650.98L647.34 529.223V521.424L643.18 512.064L634.86 502.184V494.905L631.74 479.305L627.06 466.305L620.301 455.906V446.546L623.94 437.706L627.06 427.307V418.467V411.707L623.94 403.907L620.301 392.468L616.661 388.308L611.981 381.028V372.708V360.229V353.989L604.701 348.269H594.821L590.661 342.549L583.902 338.909L575.062 342.549L564.142 345.669H550.623L537.103 348.269L528.263 345.669L515.264 335.27L511.624 329.55L506.944 322.27L502.784 316.55L500.184 312.91V306.15L496.544 300.951L500.184 294.711V283.791V278.591V272.352V265.072L506.944 256.232L511.624 245.312L517.864 237.513Z" stroke="#E0DDDD" stroke-width="3" stroke-dasharray="2 2"/>
<path d="M777.855 433.546L767.976 444.466L758.096 450.186V463.705L753.416 473.585V483.985L758.096 489.704H767.976L773.696 483.985V473.585L780.455 456.946L783.575 444.466V433.546L780.455 428.346L777.855 433.546Z" stroke="#E0DDDD" stroke-width="3" stroke-dasharray="2 2"/>
<path d="M1145.48 572.902L1149.12 564.062H1157.44L1161.6 567.182L1157.44 572.902L1149.12 576.022L1145.48 572.902Z" stroke="#E0DDDD" stroke-width="3" stroke-dasharray="2 2"/>
<path d="M1095.05 522.983L1082.05 528.703H1064.89L1057.61 532.863L1049.81 537.023L1046.17 532.863V528.703L1049.81 517.264V501.664V485.545L1055.01 476.185L1073.73 465.265H1082.05L1095.05 452.266L1098.69 447.586L1105.45 440.306L1116.36 436.666L1123.64 440.306L1127.28 435.106L1134.04 430.426L1146.52 426.786C1157.76 425.122 1156.75 429.906 1154.84 432.506L1149.12 440.306L1154.84 444.466L1168.36 452.266L1177.72 440.306V432.506L1183.44 424.187L1186.04 432.506L1192.8 440.306V454.346L1197.48 460.585L1205.28 476.185L1213.08 485.545V494.904L1208.92 512.064L1201.12 522.983L1192.8 528.703L1186.04 541.703L1177.72 548.463H1169.92L1166.28 552.103L1161.08 555.222L1154.84 552.103H1146.52L1140.28 548.463V541.703L1137.68 537.023L1132.48 528.703L1127.28 532.863L1121.04 522.983L1114.28 520.383H1108.57L1095.05 522.983Z" stroke="#E0DDDD" stroke-width="3" stroke-dasharray="2 2"/>
<path d="M1231.28 590.062H1219.84C1219.84 586.318 1224 581.569 1226.08 579.662L1239.08 572.902L1250.52 569.262L1260.4 562.502V569.262L1254.16 572.902L1250.52 579.662H1245.32L1239.08 585.902L1231.28 590.062Z" stroke="#E0DDDD" stroke-width="3" stroke-dasharray="2 2"/>
<path d="M1274.96 566.142H1268.2L1270.8 558.862V553.143L1278.08 550.023L1281.2 539.103L1284.32 546.903L1289 553.143L1281.2 558.862L1274.96 566.142Z" stroke="#E0DDDD" stroke-width="3" stroke-dasharray="2 2"/>
<path d="M339.509 626.46L325.47 618.661H315.59L302.07 612.941L295.311 602.021L286.471 589.541L290.111 584.862V578.102L286.471 571.342L279.191 561.982V552.623L276.591 527.663L272.951 505.304V484.505V465.265L262.552 453.306L249.552 444.986L241.232 433.546L232.913 420.027L225.633 402.867L219.913 400.267V388.308L225.633 383.628L219.913 376.868L225.633 365.948L232.913 354.509L236.553 349.309V342.029L232.913 329.55V325.91L236.553 329.55L241.232 325.91L246.432 319.67H252.152L257.352 312.91H262.552L265.152 322.27L262.552 329.55L257.352 322.27L268.792 315.51H276.591L281.271 319.67L289.591 322.27L299.471 319.67L305.71 322.27L317.67 336.829L322.87 342.029H331.19L343.149 345.669L348.349 354.509L351.989 362.309V368.548L358.229 372.188L363.949 376.868H371.228L374.868 379.468L382.148 383.628H393.068L401.907 388.308L411.787 394.028L417.507 396.628V402.867V411.707L409.187 425.227L401.907 433.546V444.986V461.106L393.068 476.185L385.788 478.785L374.868 484.505L367.068 491.785V499.064L363.949 513.104L355.109 527.663L348.349 533.903H342.109H336.389L339.509 539.623V547.943L332.75 552.623H325.47V561.982H315.59V567.702L319.75 571.342L315.59 580.702V584.862V589.541L319.75 595.781V602.021L315.59 608.261L319.75 612.941L315.59 626.46H322.87L329.11 629.06L339.509 626.46Z" stroke="#E0DDDD" stroke-width="3" stroke-dasharray="2 2"/>
<path d="M1209.44 409.627L1220.88 420.547L1217.24 424.187L1209.44 420.547L1200.6 412.747L1195.4 409.627H1189.68L1186.04 415.347L1175.64 412.747L1169.92 409.627H1164.72L1169.92 401.827L1164.72 397.148L1150.16 391.428L1142.36 388.828V383.628L1137.16 374.788H1150.16V378.948L1155.88 388.828L1161.08 383.628L1169.92 378.948L1179.28 383.628L1195.4 388.828L1206.32 397.148L1209.44 409.627Z" stroke="#E0DDDD" stroke-width="3" stroke-dasharray="2 2"/>
<path d="M1062.29 350.869L1051.89 358.669L1041.49 363.869L1043.57 375.828L1048.77 384.148L1062.29 389.348H1072.69V384.148L1080.49 373.228L1083.61 369.068V361.789L1080.49 355.549L1083.61 346.709L1080.49 341.509H1072.69L1062.29 350.869Z" stroke="#E0DDDD" stroke-width="3" stroke-dasharray="2 2"/>
<path d="M1054.49 401.827L1065.93 408.587L1060.21 411.707L1048.77 408.587H1039.93H1029.53L1026.93 401.827H1035.77H1044.61H1054.49Z" stroke="#E0DDDD" stroke-width="3" stroke-dasharray="2 2"/>
<path d="M1027.45 385.708V393.508C1027.45 399.747 1020.17 398.881 1016.53 397.667L1009.25 389.868L1002.49 375.308L992.089 360.229L983.249 351.909V344.629L1000.41 351.909L1005.61 360.229L1016.53 368.028V373.228L1027.45 385.708Z" stroke="#E0DDDD" stroke-width="3" stroke-dasharray="2 2"/>
<path d="M1083.61 297.311L1086.21 286.911C1087.25 282.751 1090.45 285.178 1091.93 286.911V297.311L1097.65 301.991L1103.89 311.87L1112.73 322.27L1116.36 332.15V343.589H1109.09L1103.89 337.87L1097.65 324.87L1091.93 311.87L1083.61 297.311Z" stroke="#E0DDDD" stroke-width="3" stroke-dasharray="2 2"/>
<path d="M1007.17 356.069L1002.49 342.029L993.649 328.51V312.39L999.889 318.63V325.39L1002.49 331.11L1007.17 336.83L1016.01 342.029L1019.65 350.869V363.349H1016.01L1007.17 356.069Z" stroke="#E0DDDD"/>
<path d="M962.45 273.911L957.77 265.072L941.65 267.672L938.01 278.071L929.691 283.791L914.091 298.351L911.491 306.67V322.79C910.243 332.773 903.345 331.11 900.052 329.03L890.692 310.31L879.252 283.791V270.791H872.492H865.213V262.472H857.413L848.573 249.992L842.853 254.672L828.294 249.992H815.294L807.495 243.752L789.295 241.672L780.975 231.793L775.256 227.113L771.616 231.793L777.855 239.072L780.975 249.992H789.295L795.015 257.272L804.375 249.992L809.574 254.672L820.494 262.472V270.791L812.174 283.791L801.255 288.991L789.295 295.751L777.855 301.99L769.016 310.31H758.096L752.896 301.99V292.631L747.176 283.791L737.297 273.911V265.072L721.697 246.872L717.017 234.393L711.298 239.072L705.058 221.913H714.417L717.017 209.433V197.994L708.178 201.114L696.738 197.994H684.258L677.499 184.474V179.794H671.259L665.019 184.474L668.139 191.754L665.019 197.994L657.739 194.354L660.339 189.154L651.499 184.474L647.86 170.955L638.5 165.235L624.98 155.875C619.156 150.467 620.82 156.395 622.38 160.035L629.14 167.835C634.513 171.821 644.428 179.794 641.1 179.794C637.772 179.794 637.98 187.767 638.5 191.754L629.14 179.794L614.581 167.835L607.301 162.635L594.301 167.835H587.021L582.342 176.154L571.422 184.474V194.354L558.422 197.994H546.463L537.103 191.754L540.743 167.835H562.062L566.742 162.635V151.715L558.422 142.355L571.422 139.756L582.342 133.516L596.901 122.076H602.621L607.301 117.396V107.517L613.021 102.837V109.597L619.78 107.517V100.237L614.581 96.5969L607.301 100.237L599.501 96.5969V83.0773L622.38 65.9179L638.5 53.9583L651.499 46.6785H673.859L687.378 53.9583L708.178 56.5582C714.833 61.966 710.951 65.0512 708.178 65.9179H699.858L687.378 61.758L699.858 72.1577H708.178L714.417 65.9179L721.697 61.758L724.817 56.5582L733.657 61.758L747.176 56.5582H764.856L783.055 53.9583H794.495L788.255 46.6785L790.855 41.4787H801.775L809.054 46.6785L819.974 41.4787L828.294 36.2788H839.734V30.559L856.893 26.3991H867.813L873.532 22.2393H883.412L893.292 26.3991H907.851L911.491 30.559L907.851 36.2788L927.091 38.8787H931.251H940.61H949.45H966.09L984.809 46.6785H995.729H1004.57L1007.17 38.8787L1024.33 41.4787L1044.61 46.6785H1062.29H1074.25L1087.77 53.9583H1113.24L1117.92 50.8384H1130.4L1149.64 53.9583L1166.8 59.1581L1177.72 63.318H1189.68L1196.96 71.1177H1181.88L1174.08 65.9179L1166.8 71.1177L1177.72 76.3176V82.0374L1166.8 89.8371H1155.88C1145.07 92.749 1147.22 97.6369 1149.64 99.7168L1158.48 103.357L1161.08 116.876V130.916H1155.88L1142.36 116.876L1133.52 103.357L1137.68 86.1972L1133.52 82.0374L1127.28 86.1972H1120.52H1113.24V95.037H1100.77H1082.05L1074.25 99.7168L1069.05 112.196L1077.37 116.876H1085.69L1097.13 121.556H1103.37L1113.24 130.916L1120.52 138.196V143.915L1123.64 154.315L1117.92 151.195L1113.24 143.915L1105.97 133.516H1103.37L1105.97 143.915V154.315L1100.77 166.795H1092.45L1087.77 170.955L1085.69 177.194V181.874L1087.77 187.074L1097.13 193.834L1100.77 201.114L1097.13 206.833H1087.77L1085.69 197.474L1074.25 189.674L1069.05 181.874C1062.39 185.618 1060.03 183.434 1059.69 181.874L1053.45 177.194L1044.61 187.074L1053.45 193.834H1059.69L1069.05 197.474L1057.09 205.273L1069.05 216.193L1074.25 223.993L1077.37 234.913L1074.25 248.952L1069.05 259.352L1057.09 265.072L1044.61 267.672L1037.85 273.911L1031.09 267.672L1024.33 272.351L1021.21 280.671L1031.09 292.631L1037.85 304.07V317.07L1031.09 322.79L1026.41 329.03H1021.21V322.79L1012.37 317.07L1001.97 310.31H998.329V317.07L993.129 310.31L988.969 298.351L984.809 292.631L979.609 295.751H974.409V288.991L970.769 280.671L962.45 273.911Z" stroke="#E0DDDD" stroke-width="3" stroke-dasharray="2 2"/>
<path d="M1109.61 219.833L1107.01 212.554L1108.57 207.874L1113.24 203.194H1119.48L1126.76 198.514L1134.04 190.194L1130.92 183.435L1125.2 172.515V165.755V157.955L1131.96 162.635L1141.32 165.755L1138.72 170.955H1131.96V178.755H1136.64L1141.32 186.034V191.754L1143.4 198.514V206.834H1134.04L1128.32 212.554L1122.08 211.514H1117.4L1113.24 209.434L1110.65 211.514L1114.8 216.193L1113.24 222.433L1109.61 219.833Z" stroke="#E0DDDD" stroke-width="3" stroke-dasharray="2 2"/>
<path d="M783.055 200.594L770.576 192.274V179.794L757.576 166.795V159.515L770.576 147.555L780.455 155.355L776.296 159.515H770.576V166.795L780.455 171.475H787.215L790.855 177.194L783.055 179.794L787.215 187.074L790.855 194.874L783.055 200.594Z" stroke="#E0DDDD" stroke-width="3" stroke-dasharray="2 2"/>
<path d="M702.458 174.595L690.498 178.754L683.218 168.355L686.338 158.995L696.738 150.675L702.458 158.995H710.778V150.675H720.657V158.995L729.497 164.715L737.817 174.595L729.497 178.754L716.497 174.595H702.458Z" stroke="#E0DDDD" stroke-width="3" stroke-dasharray="2 2"/>
<path d="M569.862 110.637L578.702 123.636L582.342 126.756L578.702 131.436L566.222 135.076H556.342L559.462 126.756V123.636L566.222 116.356L559.462 110.637V105.957V100.757H566.222L569.862 110.637Z" stroke="#E0DDDD" stroke-width="3" stroke-dasharray="2 2"/>
<path d="M541.263 117.917L549.583 114.277C556.238 111.365 554.783 115.49 553.223 117.917L549.583 125.716L541.263 129.876V117.917Z" stroke="#E0DDDD" stroke-width="3" stroke-dasharray="2 2"/>
<path d="M504.864 71.1179L516.304 67.478H529.303L535.023 71.1179L523.583 77.8777H511.104L504.864 71.1179Z" stroke="#E0DDDD" stroke-width="3" stroke-dasharray="2 2"/>
<path d="M409.707 66.9582L414.907 58.6384C421.979 55.7265 422.014 49.7987 421.147 47.1988L414.907 35.7591L403.467 26.3994H394.628L385.788 22.7596V17.0397H403.467L414.907 11.3199L431.027 8.20002L456.506 11.3199L472.105 5.6001H502.264H523.584L536.063 11.3199L528.264 22.7596L523.584 31.5993L513.704 35.7591L505.904 40.439L513.704 47.1988L505.904 51.3587L491.345 56.0385L480.945 58.6384L472.105 62.2783L456.506 66.9582L441.946 74.7579L431.027 89.8374H421.147L409.707 81.5177V66.9582Z" stroke="#E0DDDD" stroke-width="3" stroke-dasharray="2 2"/>
<path d="M353.549 13.9197L343.669 22.7594L356.149 27.4392L366.029 22.7594L378.508 18.5995L401.387 13.9197L416.467 3L389.428 6.1199H371.228V13.9197H366.029H353.549Z" stroke="#E0DDDD" stroke-width="3" stroke-dasharray="2 2"/>
<path d="M329.11 36.7991H318.71L308.31 42.5189L318.71 48.7587H329.11H341.069L350.429 60.1983V63.8382H341.069L334.83 71.118L341.069 78.9177L353.549 82.5576L361.349 75.2779V67.4781H365.509C377.156 70.39 376.948 66.2648 375.388 63.8382L369.148 55.5185L361.349 46.1588L353.549 42.5189H347.309L341.069 39.399L329.11 36.7991Z" stroke="#E0DDDD" stroke-width="3" stroke-dasharray="3 3"/>
<path d="M218.353 33.1592L210.553 36.7991L201.194 40.439L204.314 46.1588L210.553 40.439H220.953L225.113 46.1588L218.353 54.4785H227.713H233.953H242.272L251.632 52.3986L262.552 50.8386V46.1588V40.439H258.912H254.232L249.552 36.7991L244.352 40.439L237.593 36.7991L227.713 33.1592H218.353Z" stroke="#E0DDDD" stroke-width="3" stroke-dasharray="2 2"/>
<path d="M365.509 137.676L375.388 143.915L365.509 147.035H355.629L350.949 143.915L355.629 140.276L365.509 131.436V137.676Z" stroke="#E0DDDD" stroke-width="3" stroke-dasharray="3 3"/>
<path d="M265.152 190.714L283.351 176.674L294.791 173.035L302.071 164.195L314.55 157.435H319.23V164.195H327.03L338.989 157.435L327.03 152.235L331.19 141.316H322.35L327.03 132.996H341.589H353.029L364.469 127.276L372.268 119.996L364.469 117.396L358.749 109.077L355.629 91.3971L341.589 99.1968L336.389 91.3971V85.6773L319.23 80.4774L310.39 85.6773L305.19 96.5969V103.877L294.791 113.236L285.951 117.396V124.156L278.151 130.396L272.951 124.156L276.071 111.676L265.152 109.077L258.392 103.877L247.992 96.5969L254.752 85.6773L268.792 80.4774L278.151 75.2776L290.111 71.6377L297.391 67.4778L310.39 71.6377L307.27 78.3975L294.791 75.2776L302.071 63.318H314.55L322.35 57.5982V51.8783H314.55L302.071 57.5982L297.391 51.8783L294.791 43.5586L285.951 47.1985V51.8783L278.151 57.5982V51.8783H272.951V57.5982H265.152L254.752 60.1981L247.992 57.5982L235.513 60.1981V63.318L221.473 60.1981L206.914 51.8783H190.274H176.754L155.435 57.5982L140.876 51.8783L104.997 47.1985H89.9172L69.6378 51.8783L62.8781 54.9982C59.5848 54.9982 53.6223 56.6622 56.1183 63.318L47.7985 67.4778H37.3989C36.3589 69.0378 35.6309 72.7817 41.0387 75.2776L33.239 80.4774H23.8793L19.1994 88.7972L12.4396 91.3971L19.1994 96.5969L1 111.676L33.239 99.1968L50.9184 91.3971H56.1183L72.7577 85.6773L87.3173 91.3971L98.2369 99.1968L103.437 105.957C101.704 112.196 98.2369 126.34 98.2369 132.996C107.597 132.996 113.836 142.875 108.637 144.955C104.477 146.619 94.4237 158.475 89.9172 164.195L77.9576 180.314L81.5975 207.353L89.9172 218.793V228.673L93.5571 243.232L98.2369 254.152L103.437 260.392V243.232L98.2369 233.353V225.553H103.437V237.512L111.757 250.512L121.636 266.112V278.071L144.515 292.631H165.315L173.115 301.99L186.634 307.19H191.834L196.514 316.03L205.874 327.99L218.873 334.749L228.753 327.99H218.873L208.473 316.03V296.271H196.514L191.834 292.631L196.514 275.471C198.42 272.698 199.634 267.984 189.234 271.311L181.954 281.191L169.995 285.351L161.675 278.071L155.955 266.112L161.675 246.872L165.315 237.512L181.954 228.673L196.514 233.353L208.473 225.553L216.273 228.673L225.633 233.353V246.872L228.753 250.512L235.513 246.872V237.512L231.353 225.553L241.232 218.793L249.552 212.033L262.552 207.353V195.914L265.152 190.714Z" stroke="#E0DDDD" stroke-width="3" stroke-dasharray="2 2"/>
<path d="M268.792 284.831H254.232L258.392 276.511H263.592L278.151 279.631L268.792 284.831Z" stroke="#E0DDDD" stroke-width="3" stroke-dasharray="2 2"/>
<path d="M232.913 261.432H215.753L220.433 265.072L229.273 269.752L237.073 275.471L253.192 272.872L247.992 269.752L232.913 261.432Z" stroke="#E0DDDD" stroke-width="3" stroke-dasharray="2 2"/>
<path d="M225.633 152.235H240.192L230.833 160.035L225.633 171.475L228.233 176.154L234.473 171.475L240.192 157.435H249.552V165.755L260.472 160.035V152.235H254.752L249.552 149.115L244.352 143.396H230.833L225.633 152.235Z" stroke="#E0DDDD" stroke-width="3" stroke-dasharray="2 2"/>
<path d="M316.63 29.5192L342.109 34.1991L347.829 29.5192H332.749L323.39 24.8394L316.63 29.5192Z" stroke="#E0DDDD" stroke-width="3" stroke-dasharray="2 2"/>
<path d="M344.709 9.23975L341.069 16.5195H333.79L326.51 13.9196L333.79 9.23975H344.709Z" stroke="#E0DDDD" stroke-width="3" stroke-dasharray="2 2"/>
<path d="M631.74 111.157L636.42 102.317L639.54 96.077L642.14 91.3971L636.42 85.1573V79.4375L647.34 75.7976L654.1 65.3979L661.379 71.1178L651.5 79.4375L654.1 88.7972H671.779L678.539 91.3971L671.779 96.077H661.379V102.317H654.1V111.157L647.34 115.836H642.14L631.74 119.476L626.54 115.836H615.621L622.381 111.157H631.74Z" stroke="#E0DDDD" stroke-width="3" stroke-dasharray="2 2"/>
<path d="M1083.61 385.188L1088.29 373.229C1085.79 369.485 1089.33 365.775 1091.41 364.389C1091.41 361.893 1104.93 363.349 1111.69 364.389C1111.69 372.709 1101.98 369.935 1097.13 367.509L1093.49 371.149L1095.05 376.348H1102.85L1097.13 381.028L1100.25 388.308L1097.13 391.948L1093.49 385.188L1091.41 388.308V397.668L1083.61 396.108V385.188Z" stroke="#E0DDDD" stroke-width="3" stroke-dasharray="2 2"/>
</g>
</svg>
