<svg width="150" height="46" viewBox="0 0 150 46" fill="none" xmlns="http://www.w3.org/2000/svg">
<rect width="150" height="46" rx="14" fill="#A6C643"/>
<path d="M71 13.836V14.34C71 15.436 70.624 16.348 69.872 17.076C69.12 17.796 68.124 18.156 66.884 18.156C65.604 18.156 64.544 17.736 63.704 16.896C62.872 16.048 62.456 15.016 62.456 13.8C62.456 12.584 62.872 11.556 63.704 10.716C64.544 9.868 65.596 9.444 66.86 9.444C67.636 9.444 68.348 9.632 68.996 10.008C69.644 10.376 70.144 10.864 70.496 11.472L69.536 12.036C69.296 11.58 68.932 11.216 68.444 10.944C67.964 10.664 67.432 10.524 66.848 10.524C65.888 10.524 65.1 10.84 64.484 11.472C63.868 12.096 63.56 12.872 63.56 13.8C63.56 14.728 63.868 15.504 64.484 16.128C65.108 16.752 65.912 17.064 66.896 17.064C67.736 17.064 68.416 16.86 68.936 16.452C69.456 16.036 69.772 15.5 69.884 14.844H66.8V13.836H71ZM73.101 15.48C73.205 16.016 73.449 16.432 73.833 16.728C74.225 17.024 74.705 17.172 75.273 17.172C76.065 17.172 76.641 16.88 77.001 16.296L77.889 16.8C77.305 17.704 76.425 18.156 75.249 18.156C74.297 18.156 73.521 17.86 72.921 17.268C72.329 16.668 72.033 15.912 72.033 15C72.033 14.096 72.325 13.344 72.909 12.744C73.493 12.144 74.249 11.844 75.177 11.844C76.057 11.844 76.773 12.156 77.325 12.78C77.885 13.396 78.165 14.14 78.165 15.012C78.165 15.164 78.153 15.32 78.129 15.48H73.101ZM75.177 12.828C74.617 12.828 74.153 12.988 73.785 13.308C73.417 13.62 73.189 14.04 73.101 14.568H77.109C77.021 14 76.797 13.568 76.437 13.272C76.077 12.976 75.657 12.828 75.177 12.828ZM82.5733 13.008H80.9773V16.26C80.9773 16.556 81.0333 16.768 81.1453 16.896C81.2653 17.016 81.4453 17.08 81.6853 17.088C81.9253 17.088 82.2213 17.08 82.5733 17.064V18C81.6613 18.12 80.9933 18.048 80.5693 17.784C80.1453 17.512 79.9333 17.004 79.9333 16.26V13.008H78.7453V12H79.9333V10.632L80.9773 10.32V12H82.5733V13.008ZM87.6125 10.908C87.4125 10.908 87.2445 10.84 87.1085 10.704C86.9725 10.568 86.9045 10.404 86.9045 10.212C86.9045 10.02 86.9725 9.856 87.1085 9.72C87.2445 9.576 87.4125 9.504 87.6125 9.504C87.8045 9.504 87.9685 9.576 88.1045 9.72C88.2405 9.856 88.3085 10.02 88.3085 10.212C88.3085 10.404 88.2405 10.568 88.1045 10.704C87.9685 10.84 87.8045 10.908 87.6125 10.908ZM87.0845 18V12H88.1285V18H87.0845ZM93.1052 13.008H91.5092V16.26C91.5092 16.556 91.5652 16.768 91.6772 16.896C91.7972 17.016 91.9772 17.08 92.2172 17.088C92.4572 17.088 92.7532 17.08 93.1052 17.064V18C92.1932 18.12 91.5252 18.048 91.1012 17.784C90.6772 17.512 90.4652 17.004 90.4652 16.26V13.008H89.2772V12H90.4652V10.632L91.5092 10.32V12H93.1052V13.008ZM102.68 17.244C102.064 17.852 101.316 18.156 100.436 18.156C99.5564 18.156 98.8084 17.852 98.1924 17.244C97.5844 16.636 97.2804 15.888 97.2804 15C97.2804 14.112 97.5844 13.364 98.1924 12.756C98.8084 12.148 99.5564 11.844 100.436 11.844C101.316 11.844 102.064 12.148 102.68 12.756C103.296 13.364 103.604 14.112 103.604 15C103.604 15.888 103.296 16.636 102.68 17.244ZM100.436 17.136C101.036 17.136 101.54 16.932 101.948 16.524C102.356 16.116 102.56 15.608 102.56 15C102.56 14.392 102.356 13.884 101.948 13.476C101.54 13.068 101.036 12.864 100.436 12.864C99.8444 12.864 99.3444 13.068 98.9364 13.476C98.5284 13.884 98.3244 14.392 98.3244 15C98.3244 15.608 98.5284 16.116 98.9364 16.524C99.3444 16.932 99.8444 17.136 100.436 17.136ZM107.943 11.844C108.647 11.844 109.211 12.068 109.635 12.516C110.059 12.956 110.271 13.556 110.271 14.316V18H109.227V14.376C109.227 13.888 109.095 13.512 108.831 13.248C108.567 12.976 108.203 12.84 107.739 12.84C107.219 12.84 106.799 13.004 106.479 13.332C106.159 13.652 105.999 14.148 105.999 14.82V18H104.955V12H105.999V12.864C106.423 12.184 107.071 11.844 107.943 11.844Z" fill="white"/>
<path d="M65.912 25.6C66.72 25.6 67.4 25.872 67.952 26.416C68.504 26.96 68.78 27.628 68.78 28.42C68.78 29.212 68.504 29.88 67.952 30.424C67.4 30.968 66.72 31.24 65.912 31.24H64.436V34H62.78V25.6H65.912ZM65.912 29.692C66.264 29.692 66.556 29.572 66.788 29.332C67.02 29.084 67.136 28.78 67.136 28.42C67.136 28.052 67.02 27.748 66.788 27.508C66.556 27.268 66.264 27.148 65.912 27.148H64.436V29.692H65.912ZM69.9061 34V25.24H71.4541V34H69.9061ZM77.551 28H79.099V34H77.551V33.292C77.087 33.876 76.435 34.168 75.595 34.168C74.795 34.168 74.107 33.864 73.531 33.256C72.963 32.64 72.679 31.888 72.679 31C72.679 30.112 72.963 29.364 73.531 28.756C74.107 28.14 74.795 27.832 75.595 27.832C76.435 27.832 77.087 28.124 77.551 28.708V28ZM74.695 32.224C75.007 32.536 75.403 32.692 75.883 32.692C76.363 32.692 76.759 32.536 77.071 32.224C77.391 31.904 77.551 31.496 77.551 31C77.551 30.504 77.391 30.1 77.071 29.788C76.759 29.468 76.363 29.308 75.883 29.308C75.403 29.308 75.007 29.468 74.695 29.788C74.383 30.1 74.227 30.504 74.227 31C74.227 31.496 74.383 31.904 74.695 32.224ZM84.5347 28H86.1907L84.0067 34C83.6947 34.864 83.2787 35.488 82.7587 35.872C82.2467 36.264 81.6067 36.44 80.8387 36.4V34.96C81.2547 34.968 81.5827 34.88 81.8227 34.696C82.0707 34.512 82.2667 34.216 82.4107 33.808L79.9507 28H81.6427L83.2027 32.032L84.5347 28ZM93.1074 34.168C92.2754 34.168 91.5754 33.984 91.0074 33.616C90.4394 33.24 90.0394 32.732 89.8074 32.092L91.2234 31.264C91.5514 32.12 92.1954 32.548 93.1554 32.548C93.6194 32.548 93.9594 32.464 94.1754 32.296C94.3914 32.128 94.4994 31.916 94.4994 31.66C94.4994 31.364 94.3674 31.136 94.1034 30.976C93.8394 30.808 93.3674 30.628 92.6874 30.436C92.3114 30.324 91.9914 30.212 91.7274 30.1C91.4714 29.988 91.2114 29.84 90.9474 29.656C90.6914 29.464 90.4954 29.224 90.3594 28.936C90.2234 28.648 90.1554 28.312 90.1554 27.928C90.1554 27.168 90.4234 26.564 90.9594 26.116C91.5034 25.66 92.1554 25.432 92.9154 25.432C93.5954 25.432 94.1914 25.6 94.7034 25.936C95.2234 26.264 95.6274 26.724 95.9154 27.316L94.5234 28.12C94.1874 27.4 93.6514 27.04 92.9154 27.04C92.5714 27.04 92.2994 27.12 92.0994 27.28C91.9074 27.432 91.8114 27.632 91.8114 27.88C91.8114 28.144 91.9194 28.36 92.1354 28.528C92.3594 28.688 92.7834 28.864 93.4074 29.056C93.6634 29.136 93.8554 29.2 93.9834 29.248C94.1194 29.288 94.2994 29.356 94.5234 29.452C94.7554 29.54 94.9314 29.624 95.0514 29.704C95.1794 29.784 95.3234 29.892 95.4834 30.028C95.6434 30.164 95.7634 30.304 95.8434 30.448C95.9314 30.592 96.0034 30.768 96.0594 30.976C96.1234 31.176 96.1554 31.396 96.1554 31.636C96.1554 32.412 95.8714 33.028 95.3034 33.484C94.7434 33.94 94.0114 34.168 93.1074 34.168ZM100.54 29.488H99.1837V31.984C99.1837 32.192 99.2357 32.344 99.3397 32.44C99.4437 32.536 99.5957 32.592 99.7957 32.608C99.9957 32.616 100.244 32.612 100.54 32.596V34C99.4757 34.12 98.7237 34.02 98.2837 33.7C97.8517 33.38 97.6357 32.808 97.6357 31.984V29.488H96.5917V28H97.6357V26.788L99.1837 26.32V28H100.54V29.488ZM106.676 33.256C106.06 33.864 105.308 34.168 104.42 34.168C103.532 34.168 102.78 33.864 102.164 33.256C101.556 32.64 101.252 31.888 101.252 31C101.252 30.112 101.556 29.364 102.164 28.756C102.78 28.14 103.532 27.832 104.42 27.832C105.308 27.832 106.06 28.14 106.676 28.756C107.292 29.364 107.6 30.112 107.6 31C107.6 31.888 107.292 32.64 106.676 33.256ZM103.256 32.188C103.568 32.5 103.956 32.656 104.42 32.656C104.884 32.656 105.272 32.5 105.584 32.188C105.896 31.876 106.052 31.48 106.052 31C106.052 30.52 105.896 30.124 105.584 29.812C105.272 29.5 104.884 29.344 104.42 29.344C103.956 29.344 103.568 29.5 103.256 29.812C102.952 30.124 102.8 30.52 102.8 31C102.8 31.48 102.952 31.876 103.256 32.188ZM110.357 29.032C110.501 28.648 110.737 28.36 111.065 28.168C111.401 27.976 111.773 27.88 112.181 27.88V29.608C111.709 29.552 111.285 29.648 110.909 29.896C110.541 30.144 110.357 30.556 110.357 31.132V34H108.809V28H110.357V29.032ZM114.291 31.636C114.499 32.388 115.063 32.764 115.983 32.764C116.575 32.764 117.023 32.564 117.327 32.164L118.575 32.884C117.983 33.74 117.111 34.168 115.959 34.168C114.967 34.168 114.171 33.868 113.571 33.268C112.971 32.668 112.671 31.912 112.671 31C112.671 30.096 112.967 29.344 113.559 28.744C114.151 28.136 114.911 27.832 115.839 27.832C116.719 27.832 117.443 28.136 118.011 28.744C118.587 29.352 118.875 30.104 118.875 31C118.875 31.2 118.855 31.412 118.815 31.636H114.291ZM114.267 30.436H117.327C117.239 30.028 117.055 29.724 116.775 29.524C116.503 29.324 116.191 29.224 115.839 29.224C115.423 29.224 115.079 29.332 114.807 29.548C114.535 29.756 114.355 30.052 114.267 30.436Z" fill="white"/>
<path d="M33.1925 21.52L36.8888 17.8238L24.95 11.1137C24.1588 10.6862 23.4175 10.6262 22.7675 11.0937L33.1925 21.52ZM37.5188 25.8475L41.3612 23.6863C42.1112 23.2663 42.5225 22.6713 42.5225 22.0112C42.5225 21.3525 42.1112 20.7562 41.3625 20.3362L37.8838 18.3825L33.9675 22.2975L37.5188 25.8475ZM22.125 12.0025C22.045 12.2487 22 12.5237 22 12.825V31.2062C22 31.6825 22.105 32.0925 22.295 32.4187L32.4163 22.2963L22.125 12.0025ZM33.1925 23.0713L23.1275 33.1375C23.32 33.2112 23.5275 33.25 23.7462 33.25C24.1362 33.25 24.5425 33.135 24.9562 32.905L36.525 26.4088L33.1925 23.0713Z" fill="#F8F8F8"/>
</svg>
