<svg width="402" height="670" viewBox="0 0 402 670" fill="none" xmlns="http://www.w3.org/2000/svg">
<path d="M368.822 335C368.822 353.68 353.68 368.822 335 368.822C316.321 368.822 301.178 353.68 301.178 335C301.178 316.321 316.321 301.178 335 301.178C353.68 301.178 368.822 316.321 368.822 335ZM313.325 335C313.325 346.971 323.029 356.675 335 356.675C346.971 356.675 356.675 346.971 356.675 335C356.675 323.029 346.971 313.325 335 313.325C323.029 313.325 313.325 323.029 313.325 335Z" fill="#3C1D59" fill-opacity="0.1"/>
<path d="M399.96 335C399.96 370.876 370.876 399.96 335 399.96C299.124 399.96 270.04 370.876 270.04 335C270.04 299.124 299.124 270.04 335 270.04C370.876 270.04 399.96 299.124 399.96 335ZM293.37 335C293.37 357.991 312.008 376.63 335 376.63C357.991 376.63 376.63 357.991 376.63 335C376.63 312.008 357.991 293.37 335 293.37C312.008 293.37 293.37 312.008 293.37 335Z" fill="#3C1D59" fill-opacity="0.1"/>
<path d="M449.351 335C449.351 398.154 398.154 449.351 335 449.351C271.846 449.351 220.649 398.154 220.649 335C220.649 271.846 271.846 220.649 335 220.649C398.154 220.649 449.351 271.846 449.351 335ZM261.718 335C261.718 375.473 294.527 408.282 335 408.282C375.473 408.282 408.282 375.473 408.282 335C408.282 294.527 375.473 261.718 335 261.718C294.527 261.718 261.718 294.527 261.718 335Z" fill="#3C1D59" fill-opacity="0.1"/>
<path d="M529.343 335C529.343 442.333 442.333 529.343 335 529.343C227.667 529.343 140.657 442.333 140.657 335C140.657 227.667 227.667 140.657 335 140.657C442.333 140.657 529.343 227.667 529.343 335ZM210.455 335C210.455 403.784 266.216 459.545 335 459.545C403.784 459.545 459.545 403.784 459.545 335C459.545 266.216 403.784 210.455 335 210.455C266.216 210.455 210.455 266.216 210.455 335Z" fill="#3C1D59" fill-opacity="0.1"/>
<path d="M670 335C670 520.015 520.015 670 335 670C149.985 670 0 520.015 0 335C0 149.985 149.985 0 335 0C520.015 0 670 149.985 670 335ZM120.314 335C120.314 453.568 216.432 549.686 335 549.686C453.568 549.686 549.686 453.568 549.686 335C549.686 216.432 453.568 120.314 335 120.314C216.432 120.314 120.314 216.432 120.314 335Z" fill="#3C1D59" fill-opacity="0.1"/>
</svg>
