<svg width="14" height="14" viewBox="0 0 14 14" fill="none" xmlns="http://www.w3.org/2000/svg">
<path d="M11.75 4.24667V4.53535L12 4.67968C12.0354 4.70012 12.0687 4.72367 12.0995 4.75H11.6667H7.58333H7.14447C7.26211 4.64646 7.41597 4.58333 7.58333 4.58333H11.0833H11.5833V4.08333V2.91667V2.4778C11.6869 2.59544 11.75 2.74931 11.75 2.91667V4.24667ZM12.1667 5.25V4.81606C12.1954 4.84865 12.221 4.8841 12.243 4.92196C12.3013 5.02215 12.3324 5.13579 12.3333 5.25167V8.74833C12.3324 8.86421 12.3013 8.97785 12.243 9.07804C12.221 9.1159 12.1954 9.15135 12.1667 9.18394V8.75V5.25ZM11.6667 9.25H12.0995C12.0687 9.27633 12.0354 9.29988 12 9.32032L11.75 9.46465V9.75333V11.0833C11.75 11.2507 11.6869 11.4046 11.5833 11.5222V11.0833V9.91667V9.41667H11.0833H7.58333C7.41597 9.41667 7.26211 9.35354 7.14447 9.25H7.58333H11.6667ZM11.0833 11.5833H11.5222C11.4046 11.6869 11.2507 11.75 11.0833 11.75H2.91667C2.75382 11.75 2.59712 11.6904 2.47571 11.5833H2.91667H11.0833ZM2.41667 11.5243C2.30958 11.4029 2.25 11.2462 2.25 11.0833V2.91667C2.25 2.75382 2.30958 2.59712 2.41667 2.47571V2.91667V11.0833V11.5243ZM2.91667 2.41667H2.47571C2.59712 2.30958 2.75382 2.25 2.91667 2.25H11.0833C11.2507 2.25 11.4046 2.31313 11.5222 2.41667H11.0833H2.91667ZM7.08333 8.75V9.18886C6.9798 9.07122 6.91667 8.91736 6.91667 8.75V5.25C6.91667 5.08264 6.9798 4.92878 7.08333 4.81114V5.25V8.75Z" fill="#433D4A" stroke="#433D4A"/>
<path d="M9.59848 7.26517C9.52815 7.33549 9.43277 7.375 9.33331 7.375C9.23386 7.375 9.13847 7.33549 9.06815 7.26517C8.99782 7.19484 8.95831 7.09946 8.95831 7C8.95831 6.90054 8.99782 6.80516 9.06815 6.73483C9.13847 6.66451 9.23386 6.625 9.33331 6.625C9.43277 6.625 9.52815 6.66451 9.59848 6.73483C9.6688 6.80516 9.70831 6.90054 9.70831 7C9.70831 7.09946 9.6688 7.19484 9.59848 7.26517Z" fill="#433D4A" stroke="#433D4A"/>
</svg>
