<svg width="22" height="22" viewBox="0 0 22 22" fill="none" xmlns="http://www.w3.org/2000/svg">
<circle cx="11" cy="11" r="11" fill="#F5EBFF"/>
<path d="M15.75 8.24667V8.53535L16 8.67968C16.0354 8.70012 16.0687 8.72367 16.0995 8.75H15.6667H11.5833H11.1445C11.2621 8.64646 11.416 8.58333 11.5833 8.58333H15.0833H15.5833V8.08333V6.91667V6.4778C15.6869 6.59544 15.75 6.74931 15.75 6.91667V8.24667ZM16.1667 9.25V8.81606C16.1954 8.84865 16.221 8.8841 16.243 8.92196C16.3013 9.02215 16.3324 9.13579 16.3333 9.25167V12.7483C16.3324 12.8642 16.3013 12.9778 16.243 13.078C16.221 13.1159 16.1954 13.1514 16.1667 13.1839V12.75V9.25ZM15.6667 13.25H16.0995C16.0687 13.2763 16.0354 13.2999 16 13.3203L15.75 13.4647V13.7533V15.0833C15.75 15.2507 15.6869 15.4046 15.5833 15.5222V15.0833V13.9167V13.4167H15.0833H11.5833C11.416 13.4167 11.2621 13.3535 11.1445 13.25H11.5833H15.6667ZM15.0833 15.5833H15.5222C15.4046 15.6869 15.2507 15.75 15.0833 15.75H6.91667C6.75382 15.75 6.59712 15.6904 6.47571 15.5833H6.91667H15.0833ZM6.41667 15.5243C6.30958 15.4029 6.25 15.2462 6.25 15.0833V6.91667C6.25 6.75382 6.30958 6.59712 6.41667 6.47571V6.91667V15.0833V15.5243ZM6.91667 6.41667H6.47571C6.59712 6.30958 6.75382 6.25 6.91667 6.25H15.0833C15.2507 6.25 15.4046 6.31313 15.5222 6.41667H15.0833H6.91667ZM11.0833 12.75V13.1889C10.9798 13.0712 10.9167 12.9174 10.9167 12.75V9.25C10.9167 9.08264 10.9798 8.92878 11.0833 8.81114V9.25V12.75Z" fill="#433D4A" stroke="#433D4A"/>
<path d="M13.5985 11.2652C13.5282 11.3355 13.4328 11.375 13.3333 11.375C13.2339 11.375 13.1385 11.3355 13.0681 11.2652C12.9978 11.1948 12.9583 11.0995 12.9583 11C12.9583 10.9005 12.9978 10.8052 13.0681 10.7348C13.1385 10.6645 13.2339 10.625 13.3333 10.625C13.4328 10.625 13.5282 10.6645 13.5985 10.7348C13.6688 10.8052 13.7083 10.9005 13.7083 11C13.7083 11.0995 13.6688 11.1948 13.5985 11.2652Z" fill="#433D4A" stroke="#433D4A"/>
</svg>
